HIERARCHY
ROOT Hips
{
	OFFSET 0.00000 0.00000 0.00000
	CHANNELS 6 Xposition Yposition Zposition Zrotation Yrotation Xrotation 
	JOINT LHipJoint
	{
		OFFSET 0 0 0
		CHANNELS 3 Zrotation Yrotation Xrotation
		JOINT LeftHip
		{
			OFFSET 1.62329 -1.80800 0.67318
			CHANNELS 3 Zrotation Yrotation Xrotation
			JOINT LeftKnee
			{
				OFFSET 2.57139 -7.06484 0.00000
				CHANNELS 3 Zrotation Yrotation Xrotation
				JOINT LeftAnkle
				{
					OFFSET 2.52017 -6.92413 0.00000
					CHANNELS 3 Zrotation Yrotation Xrotation
					JOINT LeftToe
					{
						OFFSET 0.23295 -0.64001 2.10214
						CHANNELS 3 Zrotation Yrotation Xrotation
						End Site
						{
							OFFSET 0.00000 -0.00000 1.10139
						}
					}
				}
			}
		}
	}
	JOINT RHipJoint
	{
		OFFSET 0 0 0
		CHANNELS 3 Zrotation Yrotation Xrotation
		JOINT RightHip
		{
			OFFSET -1.48061 -1.80800 0.67318
			CHANNELS 3 Zrotation Yrotation Xrotation
			JOINT RightKnee
			{
				OFFSET -2.63258 -7.23296 0.00000
				CHANNELS 3 Zrotation Yrotation Xrotation
				JOINT RightAnkle
				{
					OFFSET -2.54779 -7.00000 0.00000
					CHANNELS 3 Zrotation Yrotation Xrotation
					JOINT RightToe
					{
						OFFSET -0.23067 -0.63376 2.12161
						CHANNELS 3 Zrotation Yrotation Xrotation
						End Site
						{
							OFFSET -0.00000 -0.00000 1.11000
						}
					}
				}
			}
		}
	}
	JOINT lowerback
	{
		OFFSET 0 0 0
		CHANNELS 3 Zrotation Yrotation Xrotation
		JOINT Chest
		{
			OFFSET -0.02108 2.07573 -0.16981
			CHANNELS 3 Zrotation Yrotation Xrotation
			JOINT Chest2
			{
				OFFSET 0.05070 2.08439 -0.03141
				CHANNELS 3 Zrotation Yrotation Xrotation
				JOINT lowerneck
				{
					OFFSET 0 0 0
					CHANNELS 3 Zrotation Yrotation Xrotation
					JOINT Neck
					{
						OFFSET -0.10731 1.60408 0.31370
						CHANNELS 3 Zrotation Yrotation Xrotation
						JOINT Head
						{
							OFFSET 0.08411 1.65679 -0.30822
							CHANNELS 3 Zrotation Yrotation Xrotation
							End Site
							{
								OFFSET 0.03911 1.69149 -0.14146
							}
						}
					}
				}
				JOINT LeftCollar
				{
					OFFSET 0 0 0
					CHANNELS 3 Zrotation Yrotation Xrotation
					JOINT LeftShoulder
					{
						OFFSET 3.52315 0.73219 -0.54694
CHANNELS 3 Zrotation Xrotation Yrotation
						JOINT LeftElbow
						{
OFFSET 0 -5.324620 -0.000000
CHANNELS 3 Zrotation Xrotation Yrotation
							JOINT LeftWrist
							{
OFFSET 0 -3.484020 -0.000000
CHANNELS 3 Zrotation Xrotation Yrotation
								JOINT lhand
								{
									OFFSET 0 0 0
CHANNELS 3 Zrotation Xrotation Yrotation
									JOINT LFingers
									{
OFFSET 0 -0.572480 -0.000000
CHANNELS 3 Zrotation Xrotation Yrotation
										End Site
										{
OFFSET 0 -0.461540 -0.000000
										}
									}
								}
								JOINT LThumb
								{
OFFSET 0 0.000000 0.000000
CHANNELS 3 Zrotation Xrotation Yrotation
									End Site
									{
OFFSET 0 -0.468590 0.468590
									}
								}
							}
						}
					}
				}
				JOINT RightCollar
				{
					OFFSET 0 0 0
					CHANNELS 3 Zrotation Yrotation Xrotation
					JOINT RightShoulder
					{
						OFFSET -3.41766 0.93592 -0.10019
CHANNELS 3 Zrotation Xrotation Yrotation
						JOINT RightElbow
						{
OFFSET 0 -5.335890 -0.000000
CHANNELS 3 Zrotation Xrotation Yrotation
							JOINT RightWrist
							{
OFFSET 0 -3.641340 -0.000000
CHANNELS 3 Zrotation Xrotation Yrotation
								JOINT rhand
								{
									OFFSET 0 0 0
CHANNELS 3 Zrotation Xrotation Yrotation
									JOINT RFingers
									{
OFFSET 0 -0.734810 -0.000000
CHANNELS 3 Zrotation Xrotation Yrotation
										End Site
										{
OFFSET 0 -0.592420 -0.000000
										}
									}
								}
								JOINT RThumb
								{
OFFSET 0 0.000000 0.000000
CHANNELS 3 Zrotation Xrotation Yrotation
									End Site
									{
OFFSET 0 -0.601470 0.601470
									}
								}
							}
						}
					}
				}
			}
		}
	}
}
MOTION
Frames: 12
Frame Time: 0.008333333333333333
5.213414 17.768672 -4.841711 16.871221 47.147985 29.944924 0.000000 0.000000 0.000000 -30.847596 -5.581276 -27.645921 1.247685 7.081672 19.957739 -0.231101 -11.031541 -3.486271 0.201278 -2.865367 -7.905755 0.000000 0.000000 0.000000 6.130425 2.762019 -38.408596 -5.218204 -13.625402 41.757021 -1.005816 6.636614 -17.897242 -0.739215 -5.492599 15.319026 6.955788 4.414709 20.645047 9.917443 7.825190 9.287991 5.024804 4.028115 -1.877299 -9.315354 -16.433503 -10.734739 13.719563 -23.897757 22.908681 2.789440 -10.004966 12.203084 0.000000 0.000000 0.000000 5.105996 -34.915385 -48.483574 134.586457 -50.968861 97.440297 14.811731 -32.608985 -14.223436 0.000000 0.000000 0.000000 -7.125000 0.000000 0.000000 -11.660976 44.353578 -0.189618 0.000000 0.000000 0.000000 -26.519785 -46.115982 15.446840 -20.479133 -31.210314 -5.779914 -29.063790 28.798052 -15.109862 0.000000 0.000000 0.000000 7.125000 0.000000 0.000000 -0.983076 12.815622 -0.740519
4.907589 17.860103 -4.687302 19.068628 51.148499 33.075031 0.000000 0.000000 0.000000 -28.695199 -6.885358 -26.311394 1.064572 6.559717 18.417385 0.234132 -6.895964 -9.232040 1.087609 -6.627168 -18.615761 0.000000 0.000000 0.000000 7.466596 2.082062 -38.558550 -4.800145 -13.155125 39.951946 -1.330397 3.644883 -20.911457 -0.826816 -5.800326 16.206449 6.512226 2.893734 19.815982 9.252862 5.739247 8.720229 5.026007 3.008155 -1.948462 -8.985977 -15.521386 -11.192612 14.137395 -22.784860 22.807821 3.084109 -9.445973 12.123729 0.000000 0.000000 0.000000 5.552124 -34.094506 -47.257171 133.490313 -51.487011 96.585820 12.152159 -40.562066 -14.487654 0.000000 0.000000 0.000000 -7.125000 0.000000 0.000000 -14.117016 44.315289 -0.243520 0.000000 0.000000 0.000000 -22.405679 -31.825379 11.809802 -33.809953 -43.940407 -13.981998 -26.107439 32.800944 -13.331299 0.000000 0.000000 0.000000 7.125000 0.000000 0.000000 0.857681 15.197808 0.602652
4.665547 17.963871 -4.597889 22.642170 55.337251 36.127782 0.000000 0.000000 0.000000 -26.283276 -8.073368 -24.163069 1.626965 8.040704 22.838334 0.326808 0.010170 -10.802366 0.738622 -5.487757 -15.305771 0.000000 0.000000 0.000000 8.069101 0.966031 -37.328430 -4.430792 -12.712540 38.301814 -1.611896 -0.084049 -24.058983 -0.766309 -5.588318 15.594937 5.240099 0.952422 18.725861 9.047967 2.938201 8.830137 6.151258 1.636784 -1.181688 -8.857688 -14.395205 -11.396815 13.913246 -21.201819 22.937576 3.289495 -8.763835 11.945588 0.000000 0.000000 0.000000 5.120014 -33.068012 -44.571766 127.592325 -53.919921 91.890880 13.520816 -49.814623 -20.204997 0.000000 0.000000 0.000000 -7.125000 0.000000 0.000000 -14.816770 50.124126 1.904093 0.000000 0.000000 0.000000 -21.526784 -22.647703 10.154682 -45.063717 -50.798942 -22.288348 -18.183127 38.880671 -10.180978 0.000000 0.000000 0.000000 7.125000 0.000000 0.000000 6.268548 19.309240 3.865767
4.501868 18.009448 -4.629935 25.193341 57.544050 38.244324 0.000000 0.000000 0.000000 -23.750020 -9.137396 -21.511072 2.077270 9.025303 25.874460 0.193827 -2.765111 -7.820317 0.652933 -5.168440 -14.389493 0.000000 0.000000 0.000000 7.870606 0.983866 -36.873979 -4.313168 -12.565864 37.764351 -1.720834 -3.063940 -26.040361 -0.580902 -4.878929 13.563885 4.585439 -0.689798 18.048790 8.222275 0.614037 8.829093 6.073019 0.487751 -0.659262 -8.202303 -13.625349 -12.251445 13.107861 -20.258662 24.629212 3.049736 -8.244048 12.463783 0.000000 0.000000 0.000000 6.742223 -30.423541 -43.934714 123.367884 -55.343508 88.445687 15.700974 -53.746414 -24.488326 0.000000 0.000000 0.000000 -7.125000 0.000000 0.000000 -14.592929 54.702652 3.534370 0.000000 0.000000 0.000000 -21.150330 -17.998836 10.253087 -48.070723 -52.187109 -24.641617 -12.955391 43.266952 -9.005897 0.000000 0.000000 0.000000 7.125000 0.000000 0.000000 10.015727 20.803150 5.895198
4.429407 18.050079 -4.804711 24.300792 57.171153 37.044878 0.000000 0.000000 0.000000 -21.598889 -11.068877 -17.519084 2.090598 9.052296 25.959079 0.126700 -1.423067 -6.374886 0.815316 -5.760629 -16.091773 0.000000 0.000000 0.000000 7.658018 1.257274 -37.100330 -4.249589 -12.485398 37.471381 -1.549166 -4.070148 -25.278010 -0.550039 -4.750190 13.197709 4.522171 -0.766906 18.199239 8.045383 0.503542 8.806252 5.937132 0.430211 -0.753940 -7.991414 -13.665226 -11.937200 12.341438 -20.212308 25.094871 2.774703 -8.281313 12.446960 0.000000 0.000000 0.000000 4.821496 -27.604633 -45.105196 127.260935 -54.042034 91.623233 14.037311 -51.680818 -22.332058 0.000000 0.000000 0.000000 -7.125000 0.000000 0.000000 -15.220424 52.288999 2.783639 0.000000 0.000000 0.000000 -20.924570 -19.473258 10.764924 -44.282183 -50.410471 -21.684623 -15.967026 42.222298 -8.246387 0.000000 0.000000 0.000000 7.125000 0.000000 0.000000 7.878857 21.439014 4.495367
4.383561 18.029711 -5.099123 24.975641 56.916492 36.367966 0.000000 0.000000 0.000000 -21.099885 -13.347972 -14.305170 2.054643 8.979049 25.729820 0.075570 -3.755049 -5.186656 0.902290 -6.053494 -16.939810 0.000000 0.000000 0.000000 6.350071 0.873124 -36.820120 -4.356566 -12.620313 37.963334 -1.385018 -4.694465 -24.362515 -0.436662 -4.240087 11.753175 4.758333 -0.205351 18.125038 8.483292 1.286803 8.779527 6.132984 0.821661 -0.802665 -7.962579 -14.285833 -11.552596 12.383852 -21.087920 25.055742 2.645020 -8.660724 12.466809 0.000000 0.000000 0.000000 4.768364 -27.380240 -45.799111 132.646951 -51.868897 95.923716 11.967556 -45.634711 -20.124398 0.000000 0.000000 0.000000 -7.125000 0.000000 0.000000 -16.254493 49.804561 1.971664 0.000000 0.000000 0.000000 -20.495270 -27.457835 13.283854 -34.917637 -44.751173 -14.756017 -20.341259 39.890549 -8.902686 0.000000 0.000000 0.000000 7.125000 0.000000 0.000000 4.720207 20.510094 2.775874
4.375447 17.954543 -5.502728 24.648731 55.764760 35.406289 0.000000 0.000000 0.000000 -21.378726 -12.504658 -11.970556 1.264990 7.128386 20.096540 -0.007498 -4.117911 -2.566481 1.041134 -6.488845 -18.209604 0.000000 0.000000 0.000000 4.264273 1.730091 -37.797419 -4.667422 -12.999210 39.365553 -1.278929 -4.379503 -23.347024 -0.415634 -4.138307 11.466100 5.474679 1.053314 17.713841 9.252465 3.031153 8.490506 6.233538 1.688544 -1.028398 -8.505211 -15.443116 -11.222911 12.174461 -22.502069 24.750490 2.389730 -9.363201 12.492763 0.000000 0.000000 0.000000 5.649437 -27.314103 -44.715684 141.264308 -47.302133 102.495577 10.842448 -36.796796 -18.994788 0.000000 0.000000 0.000000 -7.125000 0.000000 0.000000 -16.850600 48.545804 1.513403 0.000000 0.000000 0.000000 -18.458009 -36.442571 20.078074 -28.571004 -39.636372 -10.486007 -24.529665 36.641301 -10.439716 0.000000 0.000000 0.000000 7.125000 0.000000 0.000000 1.777017 18.533735 1.120574
4.397821 17.816104 -6.028664 24.257473 53.525621 34.213516 0.000000 0.000000 0.000000 -23.514707 -7.811285 -10.426607 0.763273 5.578758 15.566993 -0.111817 -7.398949 -2.033564 1.117692 -6.691771 -18.814416 0.000000 0.000000 0.000000 1.507877 2.360250 -39.556924 -5.155373 -13.556645 41.489699 -1.121032 -3.399721 -21.493076 -0.285179 -3.434326 9.490402 4.959102 1.179098 18.013310 10.722981 3.253154 8.479072 8.128651 1.778182 -1.316076 -12.596303 -15.088518 -11.358495 11.788772 -21.182786 25.629065 3.056900 -9.131572 13.177318 0.000000 0.000000 0.000000 5.423583 -25.702236 -39.394552 147.032584 -43.304273 106.600052 8.990908 -30.344792 -17.162124 0.000000 0.000000 0.000000 -7.125000 0.000000 0.000000 -17.843164 46.533796 0.697316 0.000000 0.000000 0.000000 -14.292538 -45.473966 33.131097 -23.403392 -34.525395 -7.366301 -29.931848 30.058836 -11.381671 0.000000 0.000000 0.000000 7.125000 0.000000 0.000000 -1.941127 16.907439 -1.293529
4.412641 17.725653 -6.645411 24.300250 52.855087 33.432378 0.000000 0.000000 0.000000 -25.791030 -8.262558 -9.949588 0.743019 5.506263 15.358334 0.016659 -7.106793 -5.365924 0.425245 -4.184325 -11.595940 0.000000 0.000000 0.000000 -1.470484 3.979635 -39.681445 -5.226015 -13.633917 41.790277 -1.015817 -4.184286 -20.985182 -0.433540 -4.225248 11.711199 4.556601 0.814743 19.338240 12.821067 3.114104 8.289150 10.828851 1.721401 -2.315801 -17.311345 -14.323300 -12.003294 11.297806 -18.964988 26.782211 3.979440 -8.600816 13.977637 0.000000 0.000000 0.000000 4.855142 -24.622443 -41.303271 150.412682 -40.536999 108.859614 10.217247 -20.462826 -15.661174 0.000000 0.000000 0.000000 -7.125000 0.000000 0.000000 -16.212964 45.238691 0.098129 0.000000 0.000000 0.000000 -13.165249 -51.451034 45.707636 -19.433070 -29.953094 -5.245394 -31.099523 19.913039 -15.662205 0.000000 0.000000 0.000000 7.125000 0.000000 0.000000 -2.274040 11.860294 -1.759504
4.419871 17.646689 -7.284569 24.357545 53.327623 32.888718 0.000000 0.000000 0.000000 -28.475039 -5.297752 -14.019519 1.185163 6.908272 19.444131 0.103782 -8.851038 -7.996593 0.755183 -5.550282 -15.485052 0.000000 0.000000 0.000000 -3.605516 3.948134 -39.818181 -5.113942 -13.510981 41.312582 -0.830633 -5.094681 -19.797487 -0.375244 -3.934164 10.891607 4.654662 0.292003 19.980110 13.860986 2.662388 8.495930 12.151456 1.517381 -2.380889 -19.720164 -13.847949 -13.169145 11.376959 -17.619368 27.724863 4.620019 -8.196717 14.702246 0.000000 0.000000 0.000000 3.242952 -26.197810 -37.424819 149.974612 -40.915034 108.573721 11.622230 -21.666627 -16.197969 0.000000 0.000000 0.000000 -7.125000 0.000000 0.000000 -15.125230 45.932143 0.356101 0.000000 0.000000 0.000000 -13.016913 -53.423151 52.114127 -18.728580 -29.080067 -4.898217 -31.909112 17.775627 -16.079845 0.000000 0.000000 0.000000 7.125000 0.000000 0.000000 -2.755255 11.240883 -2.167768
4.414007 17.568695 -7.952544 21.109128 52.431742 29.515389 0.000000 0.000000 0.000000 -28.609183 -6.458291 -17.051521 1.894260 8.641857 24.681674 0.349178 -8.330741 -11.241410 0.589725 -4.916687 -13.671113 0.000000 0.000000 0.000000 -3.774000 4.063858 -39.840796 -4.640603 -12.967141 39.245756 -0.543049 -4.979894 -16.627874 -0.555998 -4.775263 13.268855 3.893860 0.700115 20.565928 13.535999 3.007683 9.063795 12.140447 1.655478 -2.137094 -19.616557 -13.821946 -13.085002 11.835738 -17.788667 27.842342 4.765073 -8.216088 14.817678 0.000000 0.000000 0.000000 3.628805 -27.817028 -34.541115 146.676495 -43.576380 106.355182 13.003171 -26.939997 -18.787162 0.000000 0.000000 0.000000 -7.125000 0.000000 0.000000 -14.759038 48.654003 1.357349 0.000000 0.000000 0.000000 -14.791569 -51.533991 47.550525 -19.328943 -29.825265 -5.193428 -30.776106 22.647111 -14.684218 0.000000 0.000000 0.000000 7.125000 0.000000 0.000000 -2.174423 13.026977 -1.629509
4.426873 17.519750 -8.657765 15.816438 50.588555 25.666363 0.000000 0.000000 0.000000 -27.896555 -7.865523 -20.192297 2.353235 9.566102 27.582673 0.658004 -5.182464 -14.447632 0.642615 -5.128473 -14.275367 0.000000 0.000000 0.000000 -2.321170 4.052606 -41.167372 -3.801042 -11.890868 35.347005 -0.187105 -6.489497 -13.005547 -0.414312 -4.131346 11.446442 2.648861 1.688208 20.288837 12.408178 3.835027 9.234337 11.321914 2.008646 -1.970063 -16.801049 -13.636066 -13.449783 11.254511 -18.082862 28.526203 4.040810 -8.104004 14.829295 0.000000 0.000000 0.000000 4.490077 -28.681751 -36.818589 140.850136 -47.557686 102.190618 12.244383 -33.835112 -17.754873 0.000000 0.000000 0.000000 -7.125000 0.000000 0.000000 -15.089104 47.536242 0.965174 0.000000 0.000000 0.000000 -19.232863 -45.011663 35.150660 -22.296539 -33.309866 -6.748290 -28.692713 29.976602 -12.981557 0.000000 0.000000 0.000000 7.125000 0.000000 0.000000 -0.940862 15.256629 -0.660417
